<?xml version="1.0" standalone="no"?>
<!DOCTYPE svg PUBLIC "-//W3C//DTD SVG 20010904//EN"
 "http://www.w3.org/TR/2001/REC-SVG-20010904/DTD/svg10.dtd">
<svg version="1.0" xmlns="http://www.w3.org/2000/svg"
 width="584.000000pt" height="584.000000pt" viewBox="0 0 584.000000 584.000000"
 preserveAspectRatio="xMidYMid meet">
<metadata>
Created by potrace 1.14, written by Peter Selinger 2001-2017
</metadata>
<g transform="translate(0.000000,584.000000) scale(0.100000,-0.100000)"
fill="#000000" stroke="none">
<path d="M5009 5751 c-16 -16 -29 -38 -30 -48 -8 -185 -58 -340 -147 -453 -36
-46 -450 -460 -459 -460 -5 0 -8 60 -8 132 0 133 -2 155 -25 238 -24 89 -86
186 -157 249 -178 157 -390 200 -617 126 l-70 -23 -42 47 c-23 25 -68 59 -99
75 -49 25 -70 29 -134 29 -132 -1 -239 -61 -291 -162 -38 -76 -97 -267 -99
-321 -4 -111 69 -234 170 -286 27 -13 50 -24 51 -23 4 1 79 -12 100 -17 10 -3
19 -20 23 -47 12 -71 14 -79 31 -131 28 -85 114 -242 146 -266 3 -3 9 -17 13
-31 8 -33 -49 -237 -115 -409 -12 -30 -27 -71 -34 -90 -18 -47 -113 -243 -176
-358 -38 -73 -48 -100 -43 -120 6 -28 48 -71 71 -73 6 -1 18 -2 25 -3 19 -3
66 27 73 46 3 10 38 87 79 170 106 222 175 369 175 374 0 2 11 27 24 56 20 44
58 150 61 168 0 3 7 26 14 53 16 55 15 55 122 -4 39 -21 76 -39 80 -39 17 0 9
-25 -15 -45 -64 -55 -104 -94 -119 -116 -26 -36 -22 -81 11 -112 35 -33 79
-35 118 -5 31 24 1219 1213 1244 1245 127 163 201 371 196 551 -1 57 -5 67
-29 88 -39 33 -81 31 -118 -5z m-1154 -371 c88 -20 161 -63 224 -133 l25 -27
-56 -53 c-60 -58 -165 -114 -231 -123 -54 -8 -88 -12 -109 -13 -26 -2 -67 -43
-72 -71 -1 -14 1 -37 6 -52 15 -43 45 -56 120 -52 129 5 247 48 358 130 33 24
61 44 63 44 9 0 5 -382 -5 -419 -10 -37 -32 -64 -137 -167 -165 -162 -169
-163 -371 -59 l-89 47 20 51 c11 29 25 56 30 62 5 5 9 19 9 30 0 12 3 25 7 29
10 9 15 36 14 71 -1 36 -36 72 -77 78 -41 6 -84 -32 -108 -95 -10 -26 -22 -50
-26 -53 -12 -8 -67 102 -80 160 -6 26 -12 71 -14 100 -4 48 -1 57 25 87 46 52
75 110 115 232 21 63 45 124 54 135 20 28 134 67 202 70 30 1 76 -3 103 -9z"/>
<path d="M5398 5762 c-65 -22 -135 -80 -145 -122 -23 -90 69 -143 147 -85 104
77 235 33 253 -83 13 -79 35 -55 -869 -959 -470 -470 -859 -863 -864 -873 -31
-58 13 -130 79 -130 31 0 44 9 98 65 l62 65 10 -37 c24 -90 14 -173 -27 -231
-12 -16 -22 -33 -22 -36 0 -6 -40 -71 -62 -101 -4 -5 -32 -40 -62 -76 -98
-118 -174 -179 -416 -334 -233 -149 -290 -183 -317 -193 -31 -10 -136 -9 -183
3 -53 13 -174 16 -200 5 -31 -13 -50 -47 -50 -89 0 -45 50 -79 124 -85 25 -2
48 -6 53 -9 4 -3 31 -7 58 -11 28 -3 61 -8 75 -10 14 -3 41 -7 60 -10 19 -3
46 -8 60 -11 14 -3 39 -7 55 -9 46 -7 82 -14 185 -36 116 -25 187 -40 220 -45
14 -2 36 -7 50 -10 14 -3 36 -8 50 -10 111 -18 507 -140 559 -173 49 -30 110
-104 126 -153 25 -74 24 -111 -7 -264 -16 -77 -30 -151 -32 -165 -2 -14 -6
-32 -9 -40 -3 -8 -9 -32 -12 -54 -3 -21 -7 -42 -10 -46 -2 -4 -7 -22 -10 -41
-13 -84 -18 -100 -34 -108 -24 -13 -286 -8 -284 5 2 10 6 48 18 169 4 33 8 66
11 73 2 7 6 59 10 115 9 150 8 150 -261 162 -66 3 -147 8 -180 10 -87 5 -328
15 -490 20 -142 4 -267 12 -308 21 -12 3 -42 9 -67 14 -144 30 -257 84 -322
154 -39 43 -94 158 -111 233 -16 71 -15 208 2 269 11 41 40 73 152 165 144
120 157 138 138 196 -23 70 -104 78 -167 16 -47 -48 -73 -67 -252 -188 -80
-54 -210 -150 -289 -214 -79 -64 -155 -125 -170 -135 -14 -11 -42 -34 -62 -50
-51 -44 -119 -101 -234 -195 -131 -108 -131 -108 -200 -166 -33 -27 -62 -52
-65 -55 -6 -6 -131 -112 -145 -122 -5 -5 -24 -20 -41 -35 -59 -52 -248 -202
-290 -231 -11 -7 -48 -33 -84 -58 -70 -50 -280 -189 -450 -298 -114 -74 -192
-147 -227 -215 -18 -33 -23 -60 -23 -116 0 -67 6 -87 80 -274 44 -111 86 -214
94 -229 31 -60 27 -66 -41 -68 -103 -5 -140 -36 -131 -110 2 -19 14 -36 37
-51 l34 -23 2839 0 c3060 0 2890 -3 2918 50 7 13 9 37 5 60 -5 32 -13 41 -43
56 -32 15 -80 17 -444 18 -459 1 -410 -8 -458 84 -53 100 -144 168 -265 198
-38 9 -77 19 -85 22 -8 3 -26 7 -40 9 -53 9 -53 16 -15 199 20 93 38 180 41
194 16 79 107 518 109 530 2 8 13 62 25 120 12 58 24 116 26 130 3 14 9 41 13
60 8 38 7 147 -3 196 -25 126 -99 234 -207 300 -48 29 -393 153 -469 168 -14
3 -40 9 -58 15 -18 5 -35 10 -37 10 -3 1 -6 1 -7 2 -2 0 -10 2 -18 4 -8 2 -44
10 -80 18 -36 8 -81 18 -100 21 -56 9 -154 27 -170 31 -8 2 -21 4 -29 4 -21 1
10 27 94 80 88 55 268 174 275 181 3 3 23 18 45 34 69 49 228 218 283 301 55
83 129 226 134 260 2 11 6 25 10 30 15 24 1 181 -22 245 -13 36 -23 76 -22 89
1 17 207 228 731 752 817 816 785 778 787 919 1 41 -1 80 -4 85 -4 6 -7 16 -8
23 -4 24 -46 97 -72 126 -85 90 -236 128 -354 88z m-3185 -3434 c14 -201 92
-378 215 -490 l40 -36 -146 -68 c-81 -37 -181 -83 -222 -102 -165 -76 -300
-138 -375 -172 -27 -12 -72 -33 -99 -46 -28 -13 -54 -24 -60 -24 -5 0 -17 -6
-25 -13 -9 -8 -34 -21 -56 -29 -22 -9 -78 -34 -125 -56 -47 -22 -120 -56 -163
-75 l-78 -36 -16 37 c-30 71 -73 193 -73 206 0 16 29 47 95 103 28 23 60 50
73 61 13 11 41 35 62 52 22 18 50 42 63 53 13 12 35 31 48 42 13 11 51 43 84
70 33 28 70 59 83 70 14 11 30 25 36 30 6 6 36 30 66 55 30 25 60 50 65 56 6
6 35 30 65 55 30 24 57 46 60 49 3 3 41 35 85 70 44 36 85 69 91 75 7 5 30 25
53 44 23 19 63 51 89 72 26 21 50 38 53 39 3 0 9 -42 12 -92z m667 -663 c58
-8 119 -18 135 -20 17 -3 89 -7 160 -10 72 -3 159 -7 195 -10 36 -2 162 -7
280 -11 189 -6 252 -9 297 -13 11 -1 11 -16 -2 -136 -11 -103 -17 -154 -20
-181 -2 -17 -7 -57 -11 -89 -3 -32 -8 -68 -10 -79 -2 -12 -7 -52 -10 -91 -3
-38 -7 -77 -9 -85 -3 -8 -7 -42 -10 -75 -3 -33 -8 -71 -10 -85 -5 -31 -16
-123 -20 -170 -2 -19 -10 -60 -19 -90 -28 -100 -34 -154 -21 -220 4 -19 8 -41
9 -49 1 -12 -212 -15 -1517 -15 -836 -1 -1522 1 -1525 4 -4 3 -8 10 -9 16 -1
6 -5 24 -8 40 -16 89 -41 232 -50 294 -3 19 -8 47 -11 61 -5 27 3 40 47 71 78
56 305 195 459 281 113 62 481 247 493 247 3 0 38 15 79 34 66 31 141 65 223
101 17 7 62 28 100 45 71 33 155 71 210 95 17 7 57 26 90 41 33 15 62 29 65
29 6 1 56 24 130 58 30 14 62 28 70 31 19 7 88 1 220 -19z m-1990 -407 c13
-35 26 -67 30 -73 4 -5 14 -31 23 -58 l16 -47 -42 -28 c-23 -14 -50 -31 -59
-37 -55 -33 -254 -160 -258 -164 -3 -3 -18 -14 -35 -23 -58 -32 -77 -79 -62
-153 7 -37 38 -208 51 -287 2 -13 7 -39 10 -58 4 -19 9 -48 10 -64 l3 -28 -53
6 c-58 6 -98 23 -127 53 -32 33 -57 66 -57 75 0 5 -16 49 -36 96 -20 48 -40
96 -44 107 -37 89 -72 194 -75 224 -6 68 3 77 230 227 99 65 184 123 190 127
23 18 250 167 256 167 4 0 17 -28 29 -62z m3470 -208 c0 -8 -5 -35 -11 -60
-14 -58 -16 -70 -23 -115 -4 -20 -13 -67 -21 -103 -8 -37 -17 -78 -19 -92 -2
-14 -9 -46 -15 -73 -28 -121 -26 -157 12 -181 20 -13 98 -38 167 -53 49 -10
55 -11 55 -13 0 -1 8 -3 17 -5 42 -8 96 -30 150 -62 97 -57 84 -60 -279 -59
-219 1 -324 5 -338 13 -63 36 -83 96 -65 193 5 25 10 59 13 75 3 17 13 75 22
130 9 55 19 115 21 133 3 19 11 68 20 110 8 42 17 94 19 116 3 21 9 44 14 50
6 8 52 11 135 11 105 0 126 -2 126 -15z"/>
<path d="M2823 3191 c-70 -43 -62 -142 15 -172 39 -15 98 16 116 61 18 46 14
75 -15 107 -28 29 -72 30 -116 4z"/>
</g>
</svg>
